<?xml version="1.0" encoding="UTF-8"?>
<svg version="1.1" xmlns="http://www.w3.org/2000/svg" width="48" height="48">
<path d="M0 0 C8.33941776 2.86622476 13.22944999 7.35755715 17.94921875 14.71484375 C17.94921875 15.37484375 17.94921875 16.03484375 17.94921875 16.71484375 C18.60921875 16.71484375 19.26921875 16.71484375 19.94921875 16.71484375 C20.17609375 16.01359375 20.40296875 15.31234375 20.63671875 14.58984375 C23.70606798 7.86650733 28.47497502 3.99792881 34.94921875 0.71484375 C37.76171875 -0.22265625 37.76171875 -0.22265625 39.94921875 -0.28515625 C40.93921875 0.37484375 41.92921875 1.03484375 42.94921875 1.71484375 C43.25401144 4.57451632 43.36717048 7.17105404 43.32421875 10.02734375 C43.33582031 10.78724609 43.34742188 11.54714844 43.359375 12.33007812 C43.33528622 16.95110987 42.88679394 19.94507413 39.94921875 23.71484375 C37.76171875 25.52734375 37.76171875 25.52734375 35.94921875 26.71484375 C36.42359375 27.12734375 36.89796875 27.53984375 37.38671875 27.96484375 C39.18091992 29.97434906 39.56661846 31.07054303 39.94921875 33.71484375 C38.30675177 39.68086353 34.27007549 44.62299456 28.94921875 47.71484375 C26.26171875 47.90234375 26.26171875 47.90234375 23.94921875 46.71484375 C19.94921875 42.49862753 19.94921875 42.49862753 19.94921875 39.71484375 C19.28921875 39.71484375 18.62921875 39.71484375 17.94921875 39.71484375 C17.70171875 40.47796875 17.45421875 41.24109375 17.19921875 42.02734375 C15.80205107 45.03125426 14.88478134 46.20512584 11.94921875 47.71484375 C7.76667052 47.36856135 5.94640823 46.19467404 3.26171875 43.02734375 C0.58544964 39.74788926 -1.47810551 37.0099118 -2.05078125 32.71484375 C-0.93561234 30.32519609 0.08872333 28.57533917 1.94921875 26.71484375 C0.97984375 25.95171875 0.01046875 25.18859375 -0.98828125 24.40234375 C-3.47164457 22.4473556 -4.00294845 21.85834216 -5.05078125 18.71484375 C-5.1985575 15.84741611 -5.28174125 13.02024318 -5.30078125 10.15234375 C-5.32140625 9.37181641 -5.34203125 8.59128906 -5.36328125 7.78710938 C-5.37890625 5.5234375 -5.37890625 5.5234375 -5.05078125 1.71484375 C-2.05078125 -0.28515625 -2.05078125 -0.28515625 0 0 Z " fill="#000000" transform="translate(5.05078125,0.28515625)"/>
</svg>
